<svg width="19" height="20" viewBox="0 0 19 20" fill="none" xmlns="http://www.w3.org/2000/svg">
<path d="M18.4829 13.9909L15.8314 11.3372C14.8845 10.3895 13.2746 10.7687 12.8958 12.0007C12.6117 12.8536 11.6648 13.3275 10.8125 13.1379C8.91858 12.6641 6.36177 10.2 5.88828 8.20978C5.60419 7.35679 6.17237 6.40907 7.02464 6.1248C8.2557 5.74571 8.63449 4.13459 7.68752 3.18687L5.03601 0.533258C4.27844 -0.130145 3.14208 -0.130145 2.4792 0.533258L0.679967 2.33392C-1.11927 4.22936 0.869361 9.25227 5.3201 13.7065C9.77085 18.1608 14.7898 20.2458 16.6837 18.3504L18.4829 16.5497C19.1459 15.7915 19.1459 14.6543 18.4829 13.9909Z" fill="white"/>
</svg>
