<?xml version="1.0" encoding="utf-8"?><svg xmlns="http://www.w3.org/2000/svg" xmlns:xlink="http://www.w3.org/1999/xlink"><symbol viewBox="0 0 50 50" id="arrow" xmlns="http://www.w3.org/2000/svg"><g clip-path="url(#aa)"><path d="M10.75 25c0-.896.341-1.792 1.024-2.475l21.5-21.5a3.501 3.501 0 114.951 4.952L19.202 25l19.023 19.022a3.502 3.502 0 01-4.952 4.952l-21.5-21.499A3.491 3.491 0 0110.75 25z"/></g><defs><clipPath id="aa"><path transform="rotate(90 25 25)" d="M0 0h50v50H0z"/></clipPath></defs></symbol><symbol viewBox="0 0 30 28" id="basket" xmlns="http://www.w3.org/2000/svg"><path d="M29.74 5.732a1.232 1.232 0 00-.972-.474H5.31l-.349-3.884A1.232 1.232 0 003.735.252H1.232a1.232 1.232 0 100 2.464H2.61l1.35 15.045v.053c.004.047.01.094.018.14l.049.55.003.03a4.742 4.742 0 001.771 3.18 3.716 3.716 0 00-.793 2.299 3.74 3.74 0 003.735 3.735 3.74 3.74 0 003.512-5.006h6.743a3.74 3.74 0 003.512 5.006 3.74 3.74 0 003.736-3.735 3.74 3.74 0 00-3.735-3.735H8.75a2.288 2.288 0 01-2.103-1.388l19.69-1.157a1.232 1.232 0 001.123-.931l2.503-10.013a1.23 1.23 0 00-.224-1.057z"/></symbol><symbol viewBox="0 0 25 15" id="burger" xmlns="http://www.w3.org/2000/svg"><path d="M0 0h25v3H0zm0 6h25v3H0zm0 6h25v3H0z"/></symbol><symbol viewBox="0 0 38 38" id="clip" xmlns="http://www.w3.org/2000/svg"><path d="M16.773 38a6.687 6.687 0 01-6.68-6.68V8.906C10.094 3.996 14.09 0 19 0s8.906 3.995 8.906 8.906V31.32H25.68V8.906A6.687 6.687 0 0019 2.226a6.687 6.687 0 00-6.68 6.68V31.32a4.458 4.458 0 004.453 4.453 4.458 4.458 0 004.454-4.453V13.36A2.23 2.23 0 0019 11.132a2.23 2.23 0 00-2.227 2.226V31.32h-2.226V13.36A4.458 4.458 0 0119 8.905a4.458 4.458 0 014.453 4.453V31.32a6.687 6.687 0 01-6.68 6.68z" fill-opacity=".8"/></symbol><symbol viewBox="0 0 63 63" id="cup" xmlns="http://www.w3.org/2000/svg"><path d="M62.998 12.018c-.063-5.347-2.8-8.291-7.705-8.291-1.9 0-3.729.442-4.925.81a71.4 71.4 0 00.121-3.601V0H12.512v.936c0 .032.003 1.402.123 3.602-1.195-.369-3.027-.811-4.928-.811-4.906 0-7.642 2.944-7.705 8.291-.062 5.26 1.138 9.943 3.566 13.918a22.515 22.515 0 007.566 7.54c3.42 2.058 6.84 2.49 9.106 2.49.558 0 1.097-.026 1.6-.078l.097-.011c1.095 1.18 2.277 2.125 3.539 2.827a3.684 3.684 0 011.799 2.458 3.088 3.088 0 00-2.168 2.944c0 1.412.955 2.605 2.253 2.968V51h-5.062v4.098h-4.996v7.895h28.397v-7.895h-4.996V51h-5.062v-3.926a3.087 3.087 0 002.253-2.968 3.088 3.088 0 00-2.168-2.944 3.683 3.683 0 011.8-2.458c1.258-.7 2.447-1.65 3.54-2.827.388.043.968.089 1.694.089 2.267 0 5.685-.432 9.106-2.491a22.519 22.519 0 007.566-7.54c2.428-3.974 3.628-8.656 3.566-13.916zM48.603 1.871c-.009.342-.022.772-.043 1.276H14.444A83.377 83.377 0 0114.4 1.87h34.203zm1.272 8.59c1.268-.422 2.91-.847 4.382-.847 1.235 0 2.123.301 2.641.896.596.683.788 1.831.571 3.412-.905 6.587-3.76 11.728-8.042 14.477-1.49.957-3.097 1.353-4.443 1.493 2.847-5.984 4.225-13.491 4.891-19.43zm-35.787 6.517c.92 4.936 2.191 9.175 3.777 12.598l.149.316c-1.346-.14-2.95-.536-4.441-1.493-4.281-2.749-7.137-7.89-8.042-14.476-.217-1.582-.025-2.73.57-3.413.52-.594 1.408-.896 2.642-.896 1.473 0 3.117.426 4.385.849.227 2.025.537 4.242.96 6.515zm6.152 17.117c-2.029 0-5.089-.386-8.141-2.223C8.976 29.993 1.729 24.3 1.872 12.04c.051-4.335 1.96-6.442 5.834-6.442 2.073 0 4.12.624 5.055.954.046.628.099 1.257.156 1.884-1.271-.373-2.77-.693-4.175-.693-1.799 0-3.162.517-4.052 1.537-.967 1.11-1.308 2.757-1.014 4.897.504 3.667 1.557 6.908 3.13 9.633 1.5 2.602 3.437 4.675 5.755 6.163 2.263 1.454 4.711 1.82 6.458 1.855l.018.03a26.361 26.361 0 00.663 1.1l.108.166a22.49 22.49 0 00.575.843c.03.042.058.085.088.126l-.232.002zM43.828 56.97v4.153H19.173V56.97h24.655zm-8.187-4.097h3.191v2.226H24.169v-2.226H35.64zM29.23 51v-3.813h4.539V51H29.23zm6.792-6.895c0 .668-.544 1.211-1.211 1.211h-6.623a1.212 1.212 0 01-1.21-1.211c0-.668.543-1.211 1.21-1.211h6.623c.668 0 1.21.543 1.21 1.211zm4.68-10.696l-.031.04c-.092.12-.185.236-.278.35l-.069.085c-.102.124-.206.246-.31.365l-.014.017c-1.043 1.19-2.182 2.133-3.385 2.802a5.563 5.563 0 00-2.769 3.955h-4.693a5.563 5.563 0 00-2.769-3.955c-1.16-.646-2.21-1.51-3.157-2.54L23 34.266c-.93-1.06-1.807-2.346-2.605-3.82l-.245-.452c-4.024-7.773-5.24-19.009-5.607-24.977h33.924c-.015.26-.032.528-.051.806l-.003.04c-.02.301-.043.604-.066.906l-.002.027c-.075.96-.164 1.923-.265 2.875l-.061.576c-.68 6.094-2.116 13.858-5.144 19.706l-.267.493a22.37 22.37 0 01-1.904 2.963zm10.199-1.538c-3.053 1.837-6.112 2.223-8.141 2.223-.08 0-.158 0-.233-.002l.004-.005c.121-.168.24-.338.359-.51l.042-.064a22.734 22.734 0 00.687-1.072c.017-.026.033-.054.049-.081.085-.143.17-.287.253-.432l.059-.1c1.746-.036 4.194-.402 6.458-1.856 2.317-1.488 4.254-3.561 5.755-6.163 1.572-2.725 2.625-5.966 3.13-9.633.293-2.14-.048-3.788-1.015-4.897-.89-1.02-2.253-1.537-4.051-1.537-1.406 0-2.905.32-4.176.693.059-.64.11-1.252.153-1.835l.004-.049c.935-.33 2.982-.954 5.054-.954 3.875 0 5.783 2.107 5.834 6.442.144 12.26-7.103 17.953-10.225 19.832z"/><path d="M23.669 30.294l-1.563 1.03a16.65 16.65 0 001.704 2.187l1.37-1.276a14.778 14.778 0 01-1.511-1.94zM19.653 19.92l-1.825.416c.898 3.933 2.096 7.235 3.56 9.813l1.627-.924c-1.374-2.42-2.506-5.55-3.362-9.306zm34.939 21.113l-.002-1.871h-1.58v-1.579l-1.871.001v1.58l-1.579.001.001 1.871h1.58l.001 1.578h1.871v-1.58l1.579-.001zM13.878 50.75l-.002-1.872-1.325.001-.002-1.325-1.871.002.001 1.325-1.325.002.002 1.87h1.325l.002 1.325 1.87-.002v-1.325l1.325-.002zM7.775 35.453H6.01v1.87h1.765v-1.87zm11.345 5.536h-1.765v1.871h1.765v-1.87zm28.45 5.629h-1.765v1.872h1.765v-1.872z"/></symbol><symbol viewBox="0 0 79 60" id="people" xmlns="http://www.w3.org/2000/svg"><path d="M28.29 49.746c-.638 0-1.155.517-1.155 1.155v6.083a1.155 1.155 0 102.31 0v-6.083c0-.638-.517-1.155-1.155-1.155zm22.358 0c-.638 0-1.155.517-1.155 1.155v6.083a1.155 1.155 0 002.31 0v-6.083c0-.638-.517-1.155-1.155-1.155z"/><path d="M73.092 45.714l-3.867-1.552v-.988a7.669 7.669 0 002.014-1.619 6.85 6.85 0 006.303-2.652c1.567-2.032 1.893-4.65.872-7.004l-1.737-4.005a3.71 3.71 0 01-.267-.943 10.929 10.929 0 00-17.971-6.702 10.93 10.93 0 00-3.66 6.702 3.69 3.69 0 01-.268.943L52.775 31.9c-1.021 2.354-.695 4.972.872 7.004 1.34 1.738 3.327 2.706 5.46 2.706.276 0 .553-.016.833-.049a7.595 7.595 0 001.81 1.503v1.099l-3.867 1.552a7.836 7.836 0 00-.738.342A10.084 10.084 0 0054 42.562l-5.037-3.465a2.119 2.119 0 00-.744-1.716l-2.047-1.737a2.117 2.117 0 00-.642-.374v-2.339a10.355 10.355 0 004.147-6.7h.123a3.999 3.999 0 003.995-3.993c0-.94-.328-1.805-.873-2.488l.825-5.87c.595-4.23-2.359-8.184-6.585-8.813l-.165-.024A10.192 10.192 0 0041.04.533l-.302-.085a11.771 11.771 0 00-9.771 1.546 1.155 1.155 0 101.284 1.92 9.465 9.465 0 017.857-1.244l.302.086a7.912 7.912 0 014.858 3.91 7.91 7.91 0 01.932 4.24l-.783-.673a1.954 1.954 0 00-2.502-.039l-1.027.83h-5.863a6.908 6.908 0 00-6.9 6.9v.32a3.985 3.985 0 00-.89.105 13.48 13.48 0 011.024-11.206 1.155 1.155 0 00-1.998-1.158c-2.374 4.097-2.759 9.135-1.052 13.544a3.978 3.978 0 00-1.063 2.709 3.999 3.999 0 003.994 3.994h.123a10.355 10.355 0 004.148 6.7v2.338a2.11 2.11 0 00-.643.374l-2.047 1.737a2.119 2.119 0 00-.743 1.716l-5.038 3.465a10.083 10.083 0 00-2.58 2.573 9.297 9.297 0 00-1.39-.627l-3.42-1.211v-.91a7.248 7.248 0 003.342-4.968h.517a3.68 3.68 0 003.675-3.675c0-.91-.332-1.742-.882-2.385l.206-2.441a9.937 9.937 0 00-4.103-8.92 9.937 9.937 0 00-9.754-1.122l-2.302.968a7.032 7.032 0 00-5.439 7.832l.515 3.671a3.658 3.658 0 00-.893 2.397 3.68 3.68 0 003.676 3.675h.516a7.243 7.243 0 003.011 4.748v1.13l-3.42 1.21c-.479.17-.95.383-1.402.633a1.155 1.155 0 001.117 2.02 7.06 7.06 0 011.055-.476l2.956-1.046a3.963 3.963 0 003.65 2.43 3.963 3.963 0 003.65-2.43l2.956 1.047c.372.131.73.295 1.074.487a10.084 10.084 0 00-.704 3.703v6.852a1.155 1.155 0 002.31 0v-6.852a7.778 7.778 0 013.371-6.41l4.81-3.31 1.972 2.637a2.217 2.217 0 002.414.791l2.87-.873v14.5a1.155 1.155 0 102.31 0v-14.5l2.87.873a2.218 2.218 0 002.413-.79l1.971-2.637 4.81 3.308a7.778 7.778 0 013.372 6.41v6.853a1.155 1.155 0 002.31 0v-6.852c0-.91-.123-1.804-.357-2.66a5.54 5.54 0 01.73-.358l3.353-1.346a3.741 3.741 0 003.39 2.169c1.501 0 2.797-.89 3.391-2.168l3.354 1.345a5.536 5.536 0 013.491 5.162v1.955a1.155 1.155 0 102.31 0V53.02a7.836 7.836 0 00-4.94-7.306zM27.456 22.238c0-.924.747-1.675 1.669-1.683v3.366a1.685 1.685 0 01-1.67-1.683zm-6.047 12.871h-.417v-2.73h.417a1.366 1.366 0 010 2.73zM4.742 33.744c0-.753.613-1.365 1.365-1.365h.417v2.73h-.417a1.367 1.367 0 01-1.365-1.365zm3.185-7.235a7.329 7.329 0 00-1.362 3.56h-.458c-.212 0-.419.019-.621.053l-.388-2.767a4.718 4.718 0 013.727-5.272 1.1 1.1 0 00.218-.067l2.403-1.01a7.644 7.644 0 017.503.863 7.642 7.642 0 013.157 6.857l-.118 1.389a3.69 3.69 0 00-.579-.046h-.427a1.947 1.947 0 00-1.934-1.747h-2.852a9.428 9.428 0 01-5.664-1.904l-.327-.248a1.62 1.62 0 00-1.21-.31 1.62 1.62 0 00-1.068.649zm1.871 1.354v.002-.002zm-.963 2.975c0-.836.2-1.643.586-2.37a11.757 11.757 0 006.775 2.165h2.486v5.595a4.93 4.93 0 01-4.924 4.924 4.93 4.93 0 01-4.923-4.924v-5.39zm4.757 14.921a1.649 1.649 0 01-1.647-1.646v-.88a7.219 7.219 0 003.294.076v.804c0 .908-.74 1.646-1.647 1.646zm36.222-21.838v-3.366c.922.008 1.669.76 1.669 1.683s-.747 1.675-1.669 1.683zm1.644-10.363l-.676 4.808a3.985 3.985 0 00-.968-.122v-.093a9.002 9.002 0 00-1.62-5.15 10.17 10.17 0 00-.031-5.27c2.23.952 3.648 3.32 3.295 5.827zM31.435 24.555v-6.632c0-2.53 2.059-4.59 4.59-4.59h6.27c.265 0 .52-.09.726-.256l1.114-.9 1.035.89a6.697 6.697 0 012.334 5.084v6.404c0 4.43-3.604 8.034-8.035 8.034-4.43 0-8.034-3.604-8.034-8.034zm8.034 10.344c1.322 0 2.586-.252 3.75-.706v1.48l-3.75 1.838-3.749-1.838v-1.48c1.164.454 2.427.706 3.75.706zm-4.63 7.454l-2.488-3.326 1.817-1.542 4.146 2.033v1.778l-3.475 1.057zm9.26 0l-3.475-1.057v-1.778l4.147-2.033 1.816 1.542-2.488 3.326zm11.377-4.861a4.575 4.575 0 01-.582-4.674l1.736-4.004c.213-.49.359-1.005.435-1.534.606-4.212 4.273-7.39 8.53-7.39 4.255 0 7.922 3.178 8.528 7.39a6 6 0 00.435 1.534l1.736 4.004a4.576 4.576 0 01-.582 4.674 4.57 4.57 0 01-3.076 1.77 7.383 7.383 0 00.47-2.053 1.155 1.155 0 00-2.301-.19c-.223 2.686-2.512 4.791-5.21 4.791a5.236 5.236 0 01-5.231-5.23v-5.541a6.37 6.37 0 011.028-3.463 9.036 9.036 0 005.219 1.843l4.213.111v2.661a1.155 1.155 0 102.31 0v-2.973c0-1.087-.85-1.96-1.936-1.989l-4.527-.119a6.711 6.711 0 01-4.036-1.494l-.298-.243a1.676 1.676 0 00-1.246-.37c-.45.05-.855.27-1.139.625a8.69 8.69 0 00-1.899 5.411v5.541a7.5 7.5 0 00.494 2.68 4.569 4.569 0 01-3.071-1.768zm10.011 8.878a1.43 1.43 0 01-1.427-1.427v-.98a7.427 7.427 0 002.854.038v.942c0 .787-.64 1.427-1.427 1.427zM2.476 48.702a1.155 1.155 0 00-1.543.536A9.254 9.254 0 000 53.302v3.682a1.155 1.155 0 102.31 0v-3.682c0-1.066.236-2.095.702-3.057a1.155 1.155 0 00-.536-1.543z"/></symbol><symbol viewBox="0 0 19 20" id="phone" xmlns="http://www.w3.org/2000/svg"><path d="M18.483 13.99l-2.652-2.653c-.947-.947-2.556-.568-2.935.664-.284.853-1.231 1.327-2.084 1.137-1.893-.474-4.45-2.938-4.924-4.928-.284-.853.284-1.8 1.137-2.085 1.23-.38 1.61-1.99.663-2.938L5.036.533c-.758-.663-1.894-.663-2.557 0L.68 2.333c-1.8 1.896.19 6.92 4.64 11.373 4.45 4.455 9.47 6.54 11.364 4.644l1.799-1.8c.663-.759.663-1.896 0-2.56z"/></symbol><symbol viewBox="0 0 68 58" id="pig" xmlns="http://www.w3.org/2000/svg"><path d="M34.577 41.58c-.598 0-1.082.485-1.082 1.083v2.31a1.083 1.083 0 002.165 0v-2.31c0-.598-.484-1.083-1.083-1.083z"/><path d="M67.344 26.065a2.222 2.222 0 00-1.582-.655h-2.78c-.035 0-.059-.04-.066-.076a23.027 23.027 0 00-4.956-10.218 23.147 23.147 0 00-8.882-6.472c-.552-2.33-1.717-4.73-4.014-6.536C42.84.361 40.6.024 40.506.011a1.084 1.084 0 00-1.236 1.072V6.93h-3.93c-.971-3.332-4.05-5.775-7.692-5.775-3.72 0-6.854 2.547-7.753 5.988A22.977 22.977 0 005.96 14.499 22.977 22.977 0 000 29.958c0 12.856 6.674 23.317 8.72 26.216a3.39 3.39 0 002.769 1.431h4.609a3.397 3.397 0 003.393-3.393v-1.498c1.166.18 2.35.271 3.537.271h10.467v1.227a3.397 3.397 0 003.393 3.393h5.062a3.41 3.41 0 003.317-2.682l.556-2.593c7.117-1.733 12.839-6.725 15.655-13.204h4.284A2.24 2.24 0 0068 36.888v-9.24c0-.598-.233-1.16-.656-1.583zM27.648 3.321a5.854 5.854 0 015.847 5.847c0 .824-.177 1.637-.51 2.382H22.31a5.855 5.855 0 01-.509-2.382 5.854 5.854 0 015.848-5.847zm38.186 33.567c0 .04-.032.072-.072.072h-3.47c.59-1.847.953-3.789 1.057-5.791a1.083 1.083 0 10-2.163-.112c-.459 8.844-6.478 16.395-14.853 18.892l1.513-7.06a1.083 1.083 0 10-2.117-.453l-2.58 12.033c-.12.563-.624.97-1.199.97h-5.063c-.676 0-1.227-.55-1.227-1.227v-4.62a1.083 1.083 0 10-2.165 0v1.227H23.027a21.11 21.11 0 01-3.537-.3v-7.856a1.083 1.083 0 10-2.165 0v11.55c0 .676-.55 1.227-1.228 1.227H11.49a1.21 1.21 0 01-1-.514c-1.952-2.768-8.323-12.75-8.323-24.969a20.812 20.812 0 015.399-14.004 20.817 20.817 0 0112.073-6.582 8.02 8.02 0 00.359 2.179h-.434a1.083 1.083 0 100 2.165h16.17a1.083 1.083 0 100-2.165h-.435a8.034 8.034 0 00.362-2.382l-.002-.073h3.612v2.383a1.083 1.083 0 102.165 0V2.505c2.055.777 5.92 3.165 5.92 10.128a1.083 1.083 0 102.165 0c0-.459-.016-.943-.054-1.444a21.002 21.002 0 016.84 5.324 20.857 20.857 0 014.488 9.254c.213 1.048 1.134 1.81 2.189 1.809h2.78c.007 0 .03 0 .05.02a.07.07 0 01.022.052v9.24z"/><path d="M56.382 26.114c-.672-1.803-2.451-3.014-4.426-3.014-1.976 0-3.755 1.211-4.427 3.014a1.083 1.083 0 102.03.757c.357-.96 1.32-1.605 2.396-1.605 1.076 0 2.04.645 2.398 1.605a1.083 1.083 0 102.029-.757zM28.73 29.132v-5.534c2.125.259 3.61 1.243 3.61 2.137a1.083 1.083 0 102.165 0c0-2.214-2.461-3.994-5.775-4.315v-.125a1.083 1.083 0 00-2.165 0v.125c-3.314.321-5.775 2.101-5.775 4.315 0 3.162 3.123 4.303 5.775 5.048v5.534c-2.125-.258-3.61-1.242-3.61-2.136a1.083 1.083 0 10-2.165 0c0 2.213 2.461 3.993 5.775 4.315v.124a1.083 1.083 0 002.165 0v-.124c3.314-.322 5.775-2.102 5.775-4.315 0-3.162-3.124-4.303-5.775-5.049zm-2.165-.616c-2.667-.836-3.61-1.597-3.61-2.781 0-.894 1.486-1.878 3.61-2.136v4.917zm2.165 7.801v-4.918c2.667.837 3.61 1.597 3.61 2.782 0 .894-1.486 1.878-3.61 2.136z"/></symbol><symbol viewBox="0 0 62 62" id="ruler" xmlns="http://www.w3.org/2000/svg"><path d="M61.438 29.168a.91.91 0 00-.991.197L57.72 32.09V13.56a.91.91 0 00-.91-.91h-6.99l2.538-2.54h.001l2.446-2.446a2.757 2.757 0 00.812-1.962c0-.741-.288-1.438-.812-1.962L51.976.912a2.757 2.757 0 00-1.962-.813c-.741 0-1.438.289-1.962.813l-2.447 2.447-2.957 2.956-6.333 6.334H8.067V3.646a.91.91 0 00-.91-.91C3.211 2.736 0 5.947 0 9.894v38.651c0 .067.008.133.022.196a6.854 6.854 0 002.06 4.412 6.854 6.854 0 004.812 1.957H34.7l-5.237 5.237a.91.91 0 00.644 1.554H61.09a.91.91 0 00.91-.91V30.008a.91.91 0 00-.562-.84zm-12.1-26.969a.956.956 0 011.351 0l2.828 2.828a.956.956 0 010 1.35l-1.803 1.804-4.179-4.179L49.34 2.2zm-3.09 3.09l4.179 4.179-1.67 1.67-4.178-4.179 1.67-1.67zM60.18 40.234h-1.679a.91.91 0 100 1.82h1.68v2.742H58.5a.91.91 0 100 1.82h1.68v2.742H58.5a.91.91 0 100 1.82h1.68v2.743H58.5a.91.91 0 100 1.82h1.68v4.34H32.303l9.192-9.192a.91.91 0 10-1.287-1.287L36.52 53.29H6.894a5.045 5.045 0 01-5.07-4.91 5.35 5.35 0 01.077-.757l.005-.027a5.256 5.256 0 01.216-.818l.034-.095c.022-.06.045-.118.07-.177l.02-.05a5.39 5.39 0 01.098-.216l.004-.01a5.357 5.357 0 013.724-2.911l.014-.003a3.39 3.39 0 01.228-.04l.038-.008c.07-.01.14-.018.209-.026l.059-.007c.067-.007.135-.011.203-.016l.065-.005a5.34 5.34 0 01.27-.006.91.91 0 00.91-.91v-6.599a.91.91 0 00-1.82 0v5.746a7.107 7.107 0 00-4.428 2.336V9.894a5.347 5.347 0 014.427-5.26v27.425a.91.91 0 001.82 0V14.47h26.428l-5.031 5.03a.91.91 0 001.287 1.288l6.584-6.584v-.001l5.957-5.956 4.178 4.178-.49.49-.002.002L28.63 31.265l-4.178-4.178 3.617-3.617a.91.91 0 00-1.287-1.287l-4.26 4.26a.919.919 0 00-.065.072l-.018.026a.964.964 0 00-.037.052l-.02.032a.9.9 0 00-.067.14l-.008.019-1.773 5.022-1.209 3.425a.918.918 0 00-.036.138h-3.026a.91.91 0 100 1.82h25.201a.91.91 0 100-1.82h-18.08l5.55-1.959.013-.006a.882.882 0 00.063-.026l.025-.012a.88.88 0 00.065-.035l.02-.012a.895.895 0 00.064-.046l.016-.012a.905.905 0 00.073-.065L48 14.469h7.902V33.91L42.884 46.928a.91.91 0 101.287 1.287l16.01-16.01v8.029zm-33.215-8.06l-2.607.92-1.737-1.736.92-2.607 3.424 3.423z"/></symbol><symbol viewBox="0 0 19 20" id="search" xmlns="http://www.w3.org/2000/svg"><path d="M17.841 14.053l-2.657-1.994c.664-1.14.949-2.47.949-3.894A8.063 8.063 0 008.066.092 8.063 8.063 0 000 8.165a8.063 8.063 0 008.066 8.073c1.424 0 2.658-.38 3.891-.95l1.993 2.66c1.044 1.329 3.037 1.519 4.27.284 1.14-1.14 1.045-3.134-.379-4.179zm-9.775.285a6.159 6.159 0 01-6.168-6.173 6.159 6.159 0 016.168-6.173 6.159 6.159 0 016.169 6.173 6.159 6.159 0 01-6.169 6.173z"/></symbol><symbol viewBox="0 0 20 20" id="trash" xmlns="http://www.w3.org/2000/svg"><path d="M16.563 2.5h-3.438v-.625C13.125.839 12.285 0 11.25 0h-2.5C7.714 0 6.875.84 6.875 1.875V2.5H3.437c-.862 0-1.562.7-1.562 1.563v1.25c0 .345.28.625.625.625h15c.345 0 .625-.28.625-.625v-1.25c0-.863-.7-1.563-1.563-1.563zm-8.438-.625c0-.345.28-.625.625-.625h2.5c.345 0 .625.28.625.625V2.5h-3.75v-.625zM3.061 7.188c-.111 0-.2.093-.195.204l.516 10.822A1.873 1.873 0 005.254 20h9.492a1.873 1.873 0 001.872-1.786l.516-10.822a.195.195 0 00-.195-.205H3.06zM12.5 8.75a.625.625 0 111.25 0v8.125a.625.625 0 11-1.25 0V8.75zm-3.125 0a.625.625 0 111.25 0v8.125a.625.625 0 11-1.25 0V8.75zm-3.125 0a.625.625 0 111.25 0v8.125a.625.625 0 11-1.25 0V8.75z"/></symbol><symbol viewBox="0 0 63 63" id="watch" xmlns="http://www.w3.org/2000/svg"><path d="M31.5 6.973c-13.527 0-24.532 11.005-24.532 24.531 0 13.527 11.005 24.532 24.532 24.532s24.532-11.005 24.532-24.532c0-13.526-11.005-24.531-24.532-24.531zm20.255 34.634l-3.618-1.998-.915 1.657 3.617 1.997a22.813 22.813 0 01-7.58 7.58l-1.997-3.617-1.657.915 1.998 3.619a22.476 22.476 0 01-9.157 2.362v-4.136h-1.892v4.136a22.475 22.475 0 01-9.156-2.362l1.997-3.619-1.657-.914-1.997 3.616a22.812 22.812 0 01-7.58-7.58l3.617-1.997-.915-1.657-3.619 1.998a22.48 22.48 0 01-2.362-9.156h4.136v-1.893H8.882a22.49 22.49 0 012.362-9.156l3.619 1.998.915-1.658-3.617-1.997a22.814 22.814 0 017.58-7.58l1.997 3.617 1.657-.915-1.998-3.618a22.478 22.478 0 019.157-2.362v4.135h1.892V8.887c3.28.135 6.38.971 9.157 2.362l-1.998 3.618 1.657.915 1.997-3.617a22.813 22.813 0 017.58 7.58l-3.617 1.997.915 1.658 3.618-1.998a22.48 22.48 0 012.362 9.156h-4.135v1.893h4.135a22.48 22.48 0 01-2.362 9.156z"/><path d="M35.27 30.558a3.901 3.901 0 00-2.824-2.825V15.57h-1.893v12.164a3.894 3.894 0 00-2.941 3.772 3.892 3.892 0 003.888 3.888 3.894 3.894 0 003.77-2.942h7.63v-1.893h-7.63zM31.5 33.5c-1.1 0-1.995-.894-1.995-1.995 0-1.1.895-1.995 1.995-1.995s1.995.895 1.995 1.995S32.6 33.5 31.5 33.5z"/><path d="M59.548 16.911l.67-.669c3.71-3.71 3.71-9.746 0-13.455A9.452 9.452 0 0053.49 0c-2.541 0-4.93.99-6.728 2.787l-.669.669 6.058 6.058-1.406 1.407c-4.23-3.962-9.478-6.48-15.14-7.302V.538h-8.21v3.081c-5.662.822-10.91 3.34-15.14 7.302l-1.407-1.407 6.059-6.058-.67-.67A9.452 9.452 0 009.51 0C6.968 0 4.58.99 2.782 2.787c-3.71 3.71-3.71 9.745 0 13.455l.67.67 6.058-6.06 1.406 1.407C6.011 17.497 3.32 24.293 3.32 31.504c0 7.528 2.932 14.605 8.254 19.927a28.334 28.334 0 005.91 4.534l-2.7 4.38H6.541v1.894h49.918v-1.893h-8.242l-2.7-4.381a28.326 28.326 0 005.91-4.534c5.322-5.322 8.254-12.4 8.254-19.927 0-7.21-2.692-14.007-7.597-19.245l1.406-1.406 6.058 6.058zM3.493 14.193C1.166 11.206 1.376 6.87 4.12 4.125a7.571 7.571 0 015.39-2.232c1.716 0 3.347.564 4.679 1.604L3.493 14.193zM29.288 2.43h4.424v.893h-4.425V2.43zm16.705 57.915H17.006l2.153-3.492a28.07 28.07 0 0012.34 2.831c4.349 0 8.546-.98 12.342-2.832l2.152 3.493zm11.795-28.841C57.788 46 45.995 57.793 31.5 57.793 17.005 57.793 5.212 46 5.212 31.505c0-14.496 11.792-26.288 26.288-26.288 14.495 0 26.288 11.792 26.288 26.288zM48.81 3.497a7.564 7.564 0 014.679-1.604c2.036 0 3.95.793 5.39 2.232 2.744 2.745 2.953 7.08.627 10.068L48.811 3.497z"/><path d="M58.527 5.032L57.1 6.275c.926 1.064 1.445 2.845 1.263 4.333l1.878.23c.247-2.012-.442-4.345-1.713-5.806zM7.9 5.707l-4.878 4.878 1.339 1.339 4.877-4.878L7.9 5.707zm31.175 36.31h-15.15v1.893h15.15v-1.893z"/></symbol></svg>