<svg width="30" height="28" fill="none" xmlns="http://www.w3.org/2000/svg"><path d="M29.74 5.732a1.232 1.232 0 0 0-.972-.474H5.31l-.349-3.884A1.232 1.232 0 0 0 3.735.252H1.232a1.232 1.232 0 1 0 0 2.464H2.61l1.35 15.045v.053c.004.047.01.094.018.14l.049.55.003.03a4.742 4.742 0 0 0 1.771 3.18 3.716 3.716 0 0 0-.793 2.299 3.74 3.74 0 0 0 3.735 3.735 3.74 3.74 0 0 0 3.512-5.006h6.743a3.74 3.74 0 0 0 3.512 5.006 3.74 3.74 0 0 0 3.736-3.735 3.74 3.74 0 0 0-3.735-3.735H8.75a2.288 2.288 0 0 1-2.103-1.388l19.69-1.157a1.232 1.232 0 0 0 1.123-.931l2.503-10.013a1.23 1.23 0 0 0-.224-1.057Z" fill="#fff"/></svg>