<svg width="162" height="40" fill="none" xmlns="http://www.w3.org/2000/svg"><g filter="url(#a)" fill="#FF9400"><path d="m14.74 26.468 1.155 4.203h7.021l.934-3.436a329.272 329.272 0 0 1-9.11-.767Zm-4.204-.444v4.647H4v-5.472c2.036.285 4.219.563 6.536.825Zm3.736-1.254-3.96-14.403h-.168c.261 3.458.392 6.144.392 8.06v5.942c-2.32-.264-4.502-.543-6.536-.83V2.48h9.822l5.696 20.014h.149L25.25 2.481h9.841v23.725c-2.318-.093-4.58-.204-6.778-.332V18.31c0-.643.006-1.356.018-2.14.025-.784.113-2.706.262-5.766h-.168L24.29 25.617a326.533 326.533 0 0 1-10.018-.848Zm14.041 2.751v3.15h6.778v-2.819a373.73 373.73 0 0 1-6.778-.33Zm11.967.502c.234.435.515.83.843 1.182 1.145 1.234 2.714 1.851 4.706 1.851 1.618 0 2.938-.231 3.958-.694.917-.415 1.818-1.152 2.705-2.21-4.197.021-8.275-.026-12.212-.13Zm12.842.125 1.222 2.523h5.06v-2.614c-2.12.048-4.215.078-6.282.091Zm10.588-.212-1.673 2.735h8.31l1.66-3.105c-2.799.156-5.567.278-8.297.37Zm9.206-2.069c-2.757.16-5.485.288-8.177.386l4.114-6.727-6.461-10.702h8.29l3.213 6.132 3.286-6.132h8.31l-6.63 10.702 3.507 5.67a362.2 362.2 0 0 1-7.552.555l-.921-1.713-.979 1.829Zm2.757 1.478 1.788 3.326h8.291l-2.415-3.907c-2.575.223-5.13.416-7.664.581Zm12.824-1.065v4.39H95.8v-5.205c-2.446.3-4.88.571-7.302.816Zm12.4-1.48v5.87h7.301v-6.966c-2.439.395-4.874.76-7.301 1.095Zm7.301-2.762c-2.439.397-4.874.764-7.301 1.102V8.824h5.508l.915 2.7h.43c.56-1.003 1.369-1.768 2.427-2.295 1.071-.527 2.285-.79 3.642-.79 3.05 0 5.191.957 6.423 2.873h.579c.598-.9 1.426-1.6 2.484-2.102 1.07-.514 2.247-.771 3.529-.771 2.502 0 4.351.662 5.546 1.986 1.195 1.324 1.793 3.335 1.793 6.035v.122a262.857 262.857 0 0 1-7.307 1.798c-.034-1.273-.232-2.24-.592-2.903-.386-.746-1.002-1.119-1.849-1.119-1.12 0-1.942.495-2.465 1.485-.449.85-.705 2.111-.768 3.785a287.54 287.54 0 0 1-7.336 1.434v-2.269c0-1.478-.187-2.584-.56-3.316-.374-.746-.977-1.119-1.812-1.119-1.145 0-1.979.527-2.502 1.581-.523 1.054-.784 2.777-.784 5.168v.931Zm5.658.695v7.938h7.32V21.31c-2.44.507-4.881.98-7.32 1.423Zm13.015-2.668V30.67h7.302V18.279c-2.428.63-4.862 1.226-7.302 1.786Z"/><path fill-rule="evenodd" clip-rule="evenodd" d="M149.117 13.887c1.054.305 1.582 1.163 1.582 2.573v.308l-3.53.116c-2.975.142-5.247.784-6.815 1.928-1.569 1.131-2.353 2.86-2.353 5.187 0 2.237.572 3.972 1.718 5.206 1.145 1.234 2.714 1.851 4.705 1.851 1.619 0 2.938-.231 3.959-.694 1.021-.463 2.023-1.324 3.007-2.584h.149l1.4 2.893H158V16.344c0-2.052-.506-3.73-1.518-5.034a218.204 218.204 0 0 1-7.365 2.577Zm.667 10.98c-.623.578-1.376.867-2.26.867-1.382 0-2.073-.668-2.073-2.005 0-1.735 1.202-2.648 3.604-2.738l1.681-.077v1.697c0 .925-.317 1.677-.952 2.256Z"/><path d="M155.185 10.04c-1.432-1.067-3.339-1.601-5.719-1.601-3.759 0-6.872.655-9.336 1.966l1.713 4.04a224.238 224.238 0 0 0 13.342-4.405ZM95.799 23.808c-2.445.301-4.88.574-7.302.82V8.824H95.8v14.984Z"/><path fill-rule="evenodd" clip-rule="evenodd" d="M59.404 26.411a390.98 390.98 0 0 1-19.744-.05c-.17-.713-.255-1.5-.255-2.362 0-2.326.784-4.055 2.353-5.187 1.568-1.144 3.84-1.787 6.816-1.928l3.529-.116v-.308c0-1.8-.86-2.7-2.577-2.7-1.544 0-3.505.54-5.882 1.62l-2.11-4.975c2.465-1.31 5.577-1.966 9.336-1.966 2.714 0 4.812.694 6.293 2.082 1.494 1.388 2.241 3.33 2.241 5.823v10.067Zm-8.216-1.544c-.623.578-1.376.867-2.26.867-1.381 0-2.072-.668-2.072-2.005 0-1.735 1.2-2.648 3.604-2.738l1.68-.077v1.697c0 .925-.317 1.677-.952 2.256Z"/><path d="M89.226.86c-.61.554-.915 1.396-.915 2.527 0 2.21 1.288 3.316 3.865 3.316 2.602 0 3.903-1.105 3.903-3.316 0-1.106-.311-1.941-.934-2.507-.622-.565-1.612-.848-2.969-.848-1.357 0-2.34.276-2.95.829Z"/></g><defs><filter id="a" x="0" y=".032" width="162" height="39.025" filterUnits="userSpaceOnUse" color-interpolation-filters="sRGB"><feFlood flood-opacity="0" result="BackgroundImageFix"/><feColorMatrix in="SourceAlpha" values="0 0 0 0 0 0 0 0 0 0 0 0 0 0 0 0 0 0 127 0" result="hardAlpha"/><feOffset dy="4"/><feGaussianBlur stdDeviation="2"/><feComposite in2="hardAlpha" operator="out"/><feColorMatrix values="0 0 0 0 0 0 0 0 0 0 0 0 0 0 0 0 0 0 0.25 0"/><feBlend in2="BackgroundImageFix" result="effect1_dropShadow"/><feBlend in="SourceGraphic" in2="effect1_dropShadow" result="shape"/></filter></defs></svg>